<svg width="305" height="93" viewBox="0 0 305 93" fill="none" xmlns="http://www.w3.org/2000/svg">
<path d="M91.2607 80.0273V29.7322H101.966L118.061 69.3217L133.868 29.7322H144.358V80.0273H136.383V43.0245L121.294 80.0273H114.325L99.2361 43.0245V80.0273H91.2607ZM166.645 80.4584C155.077 80.4584 147.82 72.986 147.82 61.7055C147.82 50.3532 155.077 42.809 165.926 42.809C176.56 42.809 183.673 49.5629 183.889 60.3404C183.889 61.2744 183.817 62.2804 183.673 63.2863H155.939V63.7892C156.155 70.0402 160.107 74.1356 166.214 74.1356C170.956 74.1356 174.405 71.7646 175.483 67.6691H183.242C181.949 74.926 175.77 80.4584 166.645 80.4584ZM156.227 57.6101H175.842C175.195 52.1495 171.387 49.0599 165.998 49.0599C161.041 49.0599 156.802 52.365 156.227 57.6101ZM186.57 80.0273V29.7322H194.33V80.0273H186.57ZM202.296 38.0668C199.637 38.0668 197.553 36.1269 197.553 33.3966C197.553 30.6663 199.637 28.7263 202.296 28.7263C204.954 28.7263 207.038 30.6663 207.038 33.3966C207.038 36.1269 204.954 38.0668 202.296 38.0668ZM198.344 80.0273V43.2401H206.104V80.0273H198.344ZM238.139 48.6288L239.073 43.2401H245.827V80.0273H239.001L238.139 74.423C235.768 77.7281 231.888 80.4584 226.14 80.4584C216.153 80.4584 208.753 73.4171 208.753 61.6337C208.753 50.2814 216.153 42.809 226.14 42.809C231.888 42.809 235.768 45.2519 238.139 48.6288ZM227.434 73.9201C233.9 73.9201 238.139 68.8906 238.139 61.7774C238.139 54.5205 233.9 49.4192 227.434 49.4192C220.967 49.4192 216.728 54.4487 216.728 61.6337C216.728 68.8906 220.967 73.9201 227.434 73.9201ZM269.217 42.809C277.336 42.809 284.018 47.2637 284.018 59.55V80.0273H276.187V60.1967C276.187 53.2272 273.241 49.491 267.421 49.491C261.242 49.491 257.578 54.0176 257.578 61.49V80.0273H249.818V43.2401H256.572L257.434 48.054C259.733 45.18 263.254 42.809 269.217 42.809Z" fill="#19212A"/>
<rect y="16.0273" width="75.719" height="75.719" rx="26" fill="#0062FF"/>
<path d="M287.548 31.0824V29.5901H293.492V31.0824H291.329V36.2805H289.712V31.0824H287.548ZM294.239 36.2805V29.5901H296.502L298.541 34.2411L300.506 29.5901H302.744V36.2805H301.202V31.555L299.113 36.2805H297.845L295.805 31.555V36.2805H294.239Z" fill="#19212A"/>
</svg>
