<svg width="791" height="243" viewBox="0 0 791 243" fill="none" xmlns="http://www.w3.org/2000/svg">
<path d="M231.998 210.938V78.9457H260.093L302.331 182.842L343.814 78.9457H371.344V210.938H350.414V113.829L310.816 210.938H292.526L252.928 113.829V210.938H231.998ZM429.833 212.069C399.474 212.069 380.43 192.459 380.43 162.855C380.43 133.062 399.474 113.264 427.947 113.264C455.854 113.264 474.521 130.988 475.087 159.272C475.087 161.723 474.898 164.363 474.521 167.003H401.737V168.323C402.303 184.728 412.674 195.476 428.701 195.476C441.146 195.476 450.197 189.253 453.025 178.505H473.39C469.996 197.55 453.78 212.069 429.833 212.069ZM402.491 152.107H453.968C452.271 137.776 442.278 129.668 428.136 129.668C415.125 129.668 404 138.342 402.491 152.107ZM482.123 210.938V78.9457H502.487V210.938H482.123ZM523.392 100.819C516.415 100.819 510.947 95.7275 510.947 88.5622C510.947 81.397 516.415 76.3059 523.392 76.3059C530.369 76.3059 535.837 81.397 535.837 88.5622C535.837 95.7275 530.369 100.819 523.392 100.819ZM513.021 210.938V114.395H533.386V210.938H513.021ZM617.459 128.537L619.91 114.395H637.634V210.938H619.721L617.459 196.23C611.236 204.904 601.054 212.069 585.969 212.069C559.759 212.069 540.338 193.59 540.338 162.666C540.338 132.874 559.759 113.264 585.969 113.264C601.054 113.264 611.236 119.675 617.459 128.537ZM589.363 194.91C606.333 194.91 617.459 181.711 617.459 163.043C617.459 143.999 606.333 130.611 589.363 130.611C572.393 130.611 561.268 143.81 561.268 162.666C561.268 181.711 572.393 194.91 589.363 194.91ZM699.018 113.264C720.325 113.264 737.861 124.954 737.861 157.198V210.938H717.308V158.895C717.308 140.605 709.577 130.8 694.304 130.8C678.088 130.8 668.471 142.679 668.471 162.289V210.938H648.107V114.395H665.831L668.094 127.028C674.128 119.486 683.368 113.264 699.018 113.264Z" fill="#19212A"/>
<rect x="0.640137" y="42.9376" width="198.713" height="198.713" rx="58.31" fill="#0062FF"/>
<path d="M101.152 75.6743C135.736 76.7615 163.712 104.055 165.878 138.357L166.004 143.717C165.442 179.514 136.811 208.494 101.152 209.616L95.7911 209.573C60.6324 207.912 32.5669 179.155 32.011 143.717L32.1366 138.357C34.2807 104.41 61.7023 77.3272 95.7911 75.7162L101.152 75.6743ZM121.869 180.952C115.372 182.385 108.408 183.224 101.152 183.363V204.108C111.938 202.286 118.219 190.277 121.869 180.952ZM101.152 101.926C106.096 102.021 110.904 102.441 115.522 103.153C116.24 104.788 117.024 106.736 117.796 108.978C103.47 106.291 88.1723 106.687 74.0625 110.35C66.4165 135.409 67.5325 165.264 79.1254 187.552C84.1407 197.196 90.0973 202.448 95.7911 203.881V183.337C91.2749 183.208 86.8761 182.805 82.6376 182.158C81.8994 180.564 81.0774 178.611 80.2517 176.317C94.5898 179.002 109.834 178.606 123.954 174.939C126.723 165.863 128.388 155.212 128.486 143.717L128.417 138.357C127.879 122.639 119.801 84.331 101.152 81.1818V101.926ZM40.7155 162.749C47.3446 181.974 63.2159 196.892 83.0204 202.196C77.6717 196.875 73.1314 188.968 69.8475 179.334C57.5914 175.727 47.417 169.916 40.7155 162.749ZM133.846 143.717C133.759 154.292 132.399 164.271 130.047 173.114C138.291 170.298 146.432 166.128 152.622 159.886C151.505 163.365 149.976 166.779 147.938 170.477C142.331 174.12 135.636 177.136 128.167 179.334C124.883 188.968 120.343 196.875 114.994 202.196C141.674 195.051 159.141 170.743 160.622 143.717H133.846ZM37.3924 143.717C39.4575 159.886 54.4811 167.902 67.6183 172.39C65.2667 163.547 64.2553 154.292 64.1691 143.717H37.3924ZM83.0204 83.0936C63.2162 88.3969 47.3448 103.316 40.7155 122.54C40.7075 122.549 40.7234 122.532 40.7155 122.54C38.9894 127.271 37.7913 132.617 37.7913 138.392C46.6051 138.392 55.4191 138.357 64.2345 138.357C64.5427 128.974 65.8551 120.117 67.967 112.176C59.7311 114.989 51.598 119.154 45.4101 125.386C46.8187 121.239 48.7052 117.555 50.5276 114.521C56.0419 111.009 62.5787 108.095 69.8475 105.956C73.1314 96.3221 77.6717 88.4146 83.0204 83.0936ZM130.047 112.176C132.159 120.117 133.472 128.974 133.78 138.357H160.179C157.135 124.576 142.418 116.402 130.047 112.176ZM114.994 83.0936C120.343 88.4145 124.679 95.5153 127.963 105.149C140.22 108.757 150.598 115.374 157.299 122.542C150.671 103.317 134.799 88.397 114.994 83.0936ZM95.7911 81.408C85.6023 83.9737 79.7109 95.2287 76.145 104.338C82.3214 102.975 88.9206 102.15 95.7911 101.952V81.408Z" fill="white"/>
<path fill-rule="evenodd" clip-rule="evenodd" d="M128.567 141.356C112.204 141.356 98.6823 142.218 98.6823 171.528C98.6823 142.218 84.5859 141.356 68.2227 141.356C84.5859 141.356 98.6823 139.057 98.6823 113.77C98.6823 138.77 112.204 141.356 128.567 141.356Z" stroke="white" stroke-width="4.9394"/>
<path d="M746.765 82.1005V78.1843H762.365V82.1005H756.686V95.7421H752.444V82.1005H746.765ZM764.323 95.7421V78.1843H770.263L775.615 90.3899L780.771 78.1843H786.646V95.7421H782.599V83.3406L777.116 95.7421H773.787L768.435 83.3406V95.7421H764.323Z" fill="#19212A"/>
</svg>
