<svg width="662" height="214" viewBox="0 0 662 214" fill="none" xmlns="http://www.w3.org/2000/svg">
<path d="M180.142 184.961V66.7326H205.308L243.141 159.795L280.299 66.7326H304.958V184.961H286.21V97.9787L250.742 184.961H234.358L198.89 97.9787V184.961H180.142ZM357.348 185.974C330.155 185.974 313.096 168.409 313.096 141.892C313.096 115.206 330.155 97.472 355.659 97.472C380.655 97.472 397.376 113.348 397.883 138.683C397.883 140.879 397.714 143.243 397.376 145.608H332.182V146.79C332.689 161.484 341.978 171.111 356.334 171.111C367.481 171.111 375.589 165.538 378.122 155.911H396.363C393.323 172.969 378.798 185.974 357.348 185.974ZM332.857 132.265H378.966C377.446 119.429 368.495 112.166 355.828 112.166C344.174 112.166 334.209 119.935 332.857 132.265ZM404.185 184.961V66.7326H422.426V184.961H404.185ZM441.151 86.3247C434.902 86.3247 430.004 81.7645 430.004 75.3464C430.004 68.9283 434.902 64.368 441.151 64.368C447.4 64.368 452.298 68.9283 452.298 75.3464C452.298 81.7645 447.4 86.3247 441.151 86.3247ZM431.862 184.961V98.4854H450.103V184.961H431.862ZM525.409 111.153L527.604 98.4854H543.481V184.961H527.435L525.409 171.787C519.835 179.556 510.715 185.974 497.203 185.974C473.726 185.974 456.329 169.422 456.329 141.723C456.329 115.037 473.726 97.472 497.203 97.472C510.715 97.472 519.835 103.214 525.409 111.153ZM500.243 170.605C515.444 170.605 525.409 158.782 525.409 142.061C525.409 125.002 515.444 113.011 500.243 113.011C485.042 113.011 475.077 124.833 475.077 141.723C475.077 158.782 485.042 170.605 500.243 170.605ZM598.463 97.472C617.549 97.472 633.256 107.944 633.256 136.825V184.961H614.846V138.345C614.846 121.962 607.922 113.179 594.241 113.179C579.716 113.179 571.102 123.82 571.102 141.385V184.961H552.861V98.4854H568.737L570.764 109.802C576.169 103.046 584.445 97.472 598.463 97.472Z" fill="#19212A"/>
<path d="M625.29 67.2815V64.0266H638.255V67.2815H633.535V78.6192H630.009V67.2815H625.29ZM639.882 78.6192V64.0266H644.819L649.267 74.1709L653.553 64.0266H658.435V78.6192H655.072V68.3122L650.515 78.6192H647.748L643.3 68.3122V78.6192H639.882Z" fill="#19212A"/>
<g clip-path="url(#clip0_152_116)">
<rect y="42.9805" width="151.072" height="151.072" rx="47" fill="#0062FF"/>
<g opacity="0.5" filter="url(#filter0_f_152_116)">
<path d="M28.5656 145.607C29.7526 145.131 31.0197 144.887 32.2986 144.887H117.344C118.622 144.887 119.89 145.131 121.077 145.607V145.607C131.331 149.716 128.391 164.959 117.344 164.959H32.2986C21.2514 164.959 18.311 149.716 28.5656 145.607V145.607Z" fill="#030337"/>
</g>
<g filter="url(#filter1_dii_152_116)">
<mask id="mask0_152_116" style="mask-type:luminance" maskUnits="userSpaceOnUse" x="22" y="65" width="107" height="106">
<path d="M128.001 65.0718H22.6362V170.436H128.001V65.0718Z" fill="white"/>
</mask>
<g mask="url(#mask0_152_116)">
<path d="M38.2877 81.262C58.3347 60.9142 91.0768 60.414 111.737 80.2595C131.964 99.949 133.087 132.977 113.69 153.689C93.6741 174.842 57.6774 175.57 37.6357 153.992C37.633 153.988 37.6302 153.985 37.6275 153.982C18.3532 133.735 18.8544 101.183 38.2877 81.262ZM74.6297 144.833C73.3825 145.74 72.0813 146.626 70.7187 147.465L70.7169 147.462C63.6424 151.988 56.9183 155.042 51.2588 156.324C66.0666 165.71 85.0568 165.654 99.7825 156.325C92.8537 154.758 84.3277 150.533 75.5174 144.201C75.2212 144.414 74.9252 144.625 74.6297 144.833ZM98.5068 128.892C96.6894 128.301 94.771 128.693 92.1573 130.343C88.1502 132.873 84.9308 136.815 81.2568 139.804C86.1154 143.151 90.7778 145.745 94.9646 147.5C97.5302 148.576 105.59 152.167 108.245 149.401C112.926 144.523 104.017 130.683 98.5068 128.892ZM46.0394 85.8294C45.1243 85.806 44.3979 85.8861 43.834 86.0881C43.6719 86.1309 43.5382 86.1772 43.4415 86.2146C42.7725 86.4744 42.1889 86.9014 41.7388 87.2819C40.793 88.0814 39.7516 89.2703 38.7147 90.7157C36.7335 93.4773 34.5319 97.5068 32.8452 102.498C28.5824 114.282 29.3701 127.453 35.1398 138.691C36.4779 141.395 37.9345 143.542 39.2474 145.181C41.2407 147.669 43.1262 149.2 43.0309 149.104L43.0454 149.089C45.6003 151.806 53.2824 148.669 56.0703 147.5C59.8694 145.907 64.0586 143.622 68.4323 140.712C70.993 139.16 73.9809 137.147 77.1574 134.156C77.7282 133.631 78.2828 133.087 78.8346 132.535C82.0453 129.324 84.4012 126.446 85.8024 123.618C87.1641 120.87 87.6308 118.159 87.0299 115.142C85.8 108.97 81.4639 105.105 76.8096 101.394C74.1462 99.0206 70.9286 96.7093 67.264 94.4508C63.3133 91.9044 59.5302 89.8812 56.0712 88.431C51.8555 86.6636 48.4664 85.8919 46.0394 85.8294ZM43.0555 94.2696C44.7872 100.444 49.0387 108.116 54.8738 107.522C57.6752 107.236 59.6379 105.26 61.5411 103.415C62.8122 102.194 64.0928 101.012 65.3773 99.8697C67.5689 101.262 69.508 102.633 71.1959 103.979C67.9134 106.995 65.236 110.418 64.2946 115.142C63.6936 118.159 64.1604 120.87 65.5221 123.618C66.79 126.177 68.8409 128.776 71.5983 131.627C69.384 133.495 67.2885 134.864 65.3482 136.032C64.0737 134.898 62.803 133.726 61.5419 132.515C59.2531 130.295 56.2645 127.771 52.8177 128.892C47.9393 130.477 44.6536 135.838 43.1392 141.071C41.7594 139.246 40.204 136.723 38.9196 133.407C41.7794 127.192 45.5207 121.005 44.15 114.408C43.7663 112.561 43.1017 110.683 42.1649 108.645C40.8895 106.491 39.7799 104.387 38.8449 102.358C40.1632 98.9636 41.6979 96.2174 43.0555 94.2696ZM114.822 95.2567C113.938 98.5502 112.426 102.187 110.353 106.024C108.509 110.138 107.271 113.454 106.986 116.944C106.453 123.467 110.444 129.309 112.973 135.346C113.749 137.197 114.369 138.978 114.823 140.668C122.949 126.629 122.902 109.225 114.822 95.2567ZM49.5087 112.122C51.0945 115.954 50.9656 120.28 49.1554 124.011L49.0425 124.244C51.7824 121.618 56.0649 121.492 58.955 123.952L59.2992 124.244L59.1954 124.003C57.5717 120.245 57.467 116.004 58.904 112.172L58.5015 112.468C55.7915 114.469 52.057 114.325 49.5087 112.122ZM101.671 112.122C98.8888 114.528 95.111 114.263 92.2757 112.172C93.7498 116.103 93.5435 120.411 91.8805 124.244C94.8641 121.71 99.1885 121.418 102.137 124.244C100.293 120.437 100.042 116.058 101.671 112.122ZM104.996 85.8294C102.569 85.8919 99.1794 86.6637 94.9637 88.431C90.7774 90.1862 86.1147 92.7783 81.2568 96.1245C84.0151 98.3683 86.7749 100.804 89.4939 103.415C91.417 105.281 93.6694 107.238 96.4507 107.522C104.047 108.296 108.444 95.3818 108.813 89.8033C109.015 86.7347 108.07 85.7506 104.996 85.8294ZM99.7861 79.6048C84.9749 70.2135 65.9777 70.2711 51.2498 79.6066C58.1788 81.1733 66.7062 85.3966 75.5174 91.7291C84.3293 85.3962 92.8569 81.1713 99.7861 79.6048Z" fill="#D6DCF5"/>
</g>
</g>
<g style="mix-blend-mode:soft-light" opacity="0.56" filter="url(#filter2_f_152_116)">
<path d="M29.6973 22.6268C33.1633 16.1213 39.9339 12.0569 47.3052 12.0569H107.312C114.683 12.0569 121.454 16.1213 124.92 22.6268L150.962 71.5068C158.042 84.796 148.411 100.839 133.354 100.839H21.263C6.20537 100.839 -3.42511 84.796 3.65508 71.5068L29.6973 22.6268Z" fill="white"/>
</g>
</g>
<defs>
<filter id="filter0_f_152_116" x="-30.7837" y="91.8528" width="211.209" height="126.14" filterUnits="userSpaceOnUse" color-interpolation-filters="sRGB">
<feFlood flood-opacity="0" result="BackgroundImageFix"/>
<feBlend mode="normal" in="SourceGraphic" in2="BackgroundImageFix" result="shape"/>
<feGaussianBlur stdDeviation="26.517" result="effect1_foregroundBlur_152_116"/>
</filter>
<filter id="filter1_dii_152_116" x="16.6803" y="62.3037" width="117.673" height="117.701" filterUnits="userSpaceOnUse" color-interpolation-filters="sRGB">
<feFlood flood-opacity="0" result="BackgroundImageFix"/>
<feColorMatrix in="SourceAlpha" type="matrix" values="0 0 0 0 0 0 0 0 0 0 0 0 0 0 0 0 0 0 127 0" result="hardAlpha"/>
<feOffset dy="3.37933"/>
<feGaussianBlur stdDeviation="3.37933"/>
<feComposite in2="hardAlpha" operator="out"/>
<feColorMatrix type="matrix" values="0 0 0 0 0 0 0 0 0 0 0 0 0 0 0 0 0 0 0.05 0"/>
<feBlend mode="normal" in2="BackgroundImageFix" result="effect1_dropShadow_152_116"/>
<feBlend mode="normal" in="SourceGraphic" in2="effect1_dropShadow_152_116" result="shape"/>
<feColorMatrix in="SourceAlpha" type="matrix" values="0 0 0 0 0 0 0 0 0 0 0 0 0 0 0 0 0 0 127 0" result="hardAlpha"/>
<feOffset dy="3.37933"/>
<feGaussianBlur stdDeviation="1.68967"/>
<feComposite in2="hardAlpha" operator="arithmetic" k2="-1" k3="1"/>
<feColorMatrix type="matrix" values="0 0 0 0 1 0 0 0 0 1 0 0 0 0 1 0 0 0 1 0"/>
<feBlend mode="normal" in2="shape" result="effect2_innerShadow_152_116"/>
<feColorMatrix in="SourceAlpha" type="matrix" values="0 0 0 0 0 0 0 0 0 0 0 0 0 0 0 0 0 0 127 0" result="hardAlpha"/>
<feOffset dy="1.68967"/>
<feGaussianBlur stdDeviation="0.844833"/>
<feComposite in2="hardAlpha" operator="arithmetic" k2="-1" k3="1"/>
<feColorMatrix type="matrix" values="0 0 0 0 1 0 0 0 0 1 0 0 0 0 1 0 0 0 0.8 0"/>
<feBlend mode="normal" in2="effect2_innerShadow_152_116" result="effect3_innerShadow_152_116"/>
</filter>
<filter id="filter2_f_152_116" x="-48.7926" y="-38.0202" width="252.202" height="188.936" filterUnits="userSpaceOnUse" color-interpolation-filters="sRGB">
<feFlood flood-opacity="0" result="BackgroundImageFix"/>
<feBlend mode="normal" in="SourceGraphic" in2="BackgroundImageFix" result="shape"/>
<feGaussianBlur stdDeviation="25.0385" result="effect1_foregroundBlur_152_116"/>
</filter>
<clipPath id="clip0_152_116">
<rect y="42.9805" width="151.072" height="151.072" rx="47" fill="white"/>
</clipPath>
</defs>
</svg>
